<?xml version="1.0" encoding="utf-8"?>
<svg viewBox="0 82.567 1654.673 519.09" fill="none" xmlns="http://www.w3.org/2000/svg">
  <defs>
    <clipPath id="clip0_17_6">
      <rect width="4056" height="1331" fill="white"/>
    </clipPath>
  </defs>
  <g clip-path="url(#clip0_17_6)" transform="matrix(0.4624960124492645, 0, 0, 0.4624960124492645, -117.70530113138716, 31.19886444805354)">
    <path d="M854.5 695.5V848.5H734.5V701.5C734.5 645.5 718.5 604.5 686.5 578.5C655.5 552.5 613.5 539.5 560.5 539.5C520.5 539.5 485 544.5 454 554.5C423 564.5 396.5 576 374.5 589V848.5H254.5V595C254.5 574 258.5 557 266.5 544C275.5 530 290.5 516.5 311.5 503.5C337.5 488.5 372 474.5 415 461.5C458 447.5 506.5 440.5 560.5 440.5C651.5 440.5 723 461.5 775 503.5C828 544.5 854.5 608.5 854.5 695.5ZM254.5 766H374.5V1150C369.5 1152 362 1154 352 1156C342 1159 331 1160.5 319 1160.5C298 1160.5 282 1156.5 271 1148.5C260 1139.5 254.5 1125.5 254.5 1106.5V766ZM734.5 766H854.5V1150C849.5 1152 841.5 1154 830.5 1156C820.5 1159 810 1160.5 799 1160.5C777 1160.5 760.5 1156.5 749.5 1148.5C739.5 1139.5 734.5 1125.5 734.5 1106.5V766Z" fill="#2B2F3B"/>
    <path d="M2114 836.5L2039 778L2381 446.5C2405 447.5 2423.5 453.5 2436.5 464.5C2450.5 474.5 2457.5 488 2457.5 505C2457.5 519 2453 531.5 2444 542.5C2436 553.5 2424 565.5 2408 578.5L2114 836.5ZM2036 797.5L2120 748L2501 1090C2499 1112 2492 1129.5 2480 1142.5C2469 1155.5 2454 1162 2435 1162C2420 1162 2406 1158 2393 1150C2381 1142 2368.5 1131.5 2355.5 1118.5L2036 797.5ZM1932.5 751L2052.5 769V1150C2047.5 1152 2040 1154 2030 1156C2020 1159 2009 1160.5 1997 1160.5C1976 1160.5 1960 1156.5 1949 1148.5C1938 1139.5 1932.5 1125.5 1932.5 1106.5V751ZM2052.5 827.5L1932.5 809.5V181C1937.5 179 1945 177 1955 175C1966 172 1977.5 170.5 1989.5 170.5C2010.5 170.5 2026 175 2036 184C2047 192 2052.5 205.5 2052.5 224.5V827.5ZM2899.17 1075C2941.17 1075 2975.67 1071 3002.67 1063C3030.67 1054 3050.67 1045.5 3062.67 1037.5V820L2876.67 839.5C2824.67 843.5 2786.17 855 2761.17 874C2736.17 893 2723.67 920.5 2723.67 956.5C2723.67 993.5 2738.17 1022.5 2767.17 1043.5C2797.17 1064.5 2841.17 1075 2899.17 1075ZM2897.67 440.5C2984.67 440.5 3053.67 460 3104.67 499C3155.67 538 3181.17 599.5 3181.17 683.5V1039C3181.17 1061 3176.67 1078 3167.67 1090C3159.67 1101 3147.17 1111.5 3130.17 1121.5C3106.17 1134.5 3074.17 1146.5 3034.17 1157.5C2994.17 1168.5 2949.17 1174 2899.17 1174C2805.17 1174 2732.17 1155.5 2680.17 1118.5C2629.17 1081.5 2603.67 1028 2603.67 958C2603.67 893 2625.17 843.5 2668.17 809.5C2712.17 774.5 2772.67 753.5 2849.67 746.5L3062.67 725.5V683.5C3062.67 633.5 3047.67 597 3017.67 574C2987.67 551 2947.17 539.5 2896.17 539.5C2855.17 539.5 2815.67 545.5 2777.67 557.5C2740.67 569.5 2707.67 583 2678.67 598C2670.67 591 2663.17 583 2656.17 574C2650.17 564 2647.17 554 2647.17 544C2647.17 518 2661.67 498 2690.67 484C2717.67 470 2748.67 459.5 2783.67 452.5C2819.67 444.5 2857.67 440.5 2897.67 440.5ZM3520.2 589V826H3400.2V598C3400.2 575 3404.2 557 3412.2 544C3421.2 530 3435.7 516.5 3455.7 503.5C3481.7 486.5 3517.2 472 3562.2 460C3607.2 447 3657.2 440.5 3712.2 440.5C3792.2 440.5 3832.2 460.5 3832.2 500.5C3832.2 510.5 3830.7 520 3827.7 529C3824.7 537 3820.7 544 3815.7 550C3805.7 548 3792.7 546 3776.7 544C3760.7 542 3744.7 541 3728.7 541C3682.7 541 3642.2 546 3607.2 556C3572.2 565 3543.2 576 3520.2 589ZM3400.2 757L3520.2 775V1150C3515.2 1152 3507.7 1154 3497.7 1156C3487.7 1159 3476.7 1160.5 3464.7 1160.5C3443.7 1160.5 3427.7 1156.5 3416.7 1148.5C3405.7 1139.5 3400.2 1125.5 3400.2 1106.5V757Z" fill="#2B2F3B"/>
    <path d="M1417 844.667C1453.82 844.667 1483.67 814.819 1483.67 778C1483.67 741.181 1453.82 711.333 1417 711.333C1380.18 711.333 1350.33 741.181 1350.33 778C1350.33 814.819 1380.18 844.667 1417 844.667Z" stroke="#2B2F3B" stroke-width="50"/>
    <path d="M1217 778H1350.33" stroke="#2B2F3B" stroke-width="50" stroke-linecap="round"/>
    <path d="M1483.67 778H1617" stroke="#2B2F3B" stroke-width="50" stroke-linecap="round"/>
    <path d="M1317 951.21L1383.67 835.74" stroke="#2B2F3B" stroke-width="50" stroke-linecap="round"/>
    <path d="M1450.33 720.27L1517 604.799" stroke="#2B2F3B" stroke-width="50" stroke-linecap="round"/>
    <path d="M1517 951.21L1450.33 835.74" stroke="#2B2F3B" stroke-width="50" stroke-linecap="round"/>
    <path d="M1383.67 720.27L1317 604.799" stroke="#2B2F3B" stroke-width="50" stroke-linecap="round"/>
    <path d="M1250.33 489.261C1299.36 460.899 1356.29 444.667 1417 444.667C1601.09 444.667 1750.33 593.905 1750.33 778C1750.33 962.093 1601.09 1111.33 1417 1111.33C1232.91 1111.33 1083.67 962.093 1083.67 778C1083.67 717.287 1099.9 660.362 1128.26 611.333" stroke="#2B2F3B" stroke-width="50" stroke-linecap="round"/>
    <path d="M1517 951.243C1487.58 968.26 1453.43 978 1417 978C1306.54 978 1217 888.457 1217 778C1217 667.543 1306.54 578 1417 578C1527.46 578 1617 667.543 1617 778C1617 814.43 1607.26 848.583 1590.24 878" stroke="#2B2F3B" stroke-width="50" stroke-linecap="round"/>
  </g>
</svg>