<svg width="3916" height="936" viewBox="0 0 3916 936" fill="none" xmlns="http://www.w3.org/2000/svg">
<g clip-path="url(#clip0_17_6)">
<rect width="3916" height="936" fill="white"/>
<path d="M323 819H173C160.333 819 151 816.333 145 811C139.667 805 137 795.667 137 783V135C137 122.333 139.667 113.333 145 108C151 102 160.333 99 173 99H277C289.667 99 300.333 101 309 105C318.333 109 327.333 116 336 126L530 348V135C530 122.333 532.667 113.333 538 108C544 102 553.333 99 566 99H716C728.667 99 737.667 102 743 108C749 113.333 752 122.333 752 135V783C752 795.667 749 805 743 811C737.667 816.333 728.667 819 716 819H566C553.333 819 544 816.333 538 811C532.667 805 530 795.667 530 783V660L359 453V783C359 795.667 356 805 350 811C344.667 816.333 335.667 819 323 819Z" fill="#2B2F3B"/>
<path d="M1880 842H1725C1712.33 842 1703 839.333 1697 834C1691.67 828 1689 818.667 1689 806V158C1689 145.333 1691.67 136.333 1697 131C1703 125 1712.33 122 1725 122H1880C1892.67 122 1901.67 125 1907 131C1913 136.333 1916 145.333 1916 158V388H1956L2059 155C2063.67 143 2070 134.667 2078 130C2086 124.667 2096.33 122 2109 122H2263C2274.33 122 2282 125 2286 131C2290 136.333 2289.67 144.333 2285 155L2183 388C2220.33 390 2250 403.333 2272 428C2294.67 452 2306 484 2306 524V806C2306 818.667 2303 828 2297 834C2291.67 839.333 2282.67 842 2270 842H2116C2103.33 842 2094 839.333 2088 834C2082.67 828 2080 818.667 2080 806V611C2080 600.333 2077.33 592 2072 586C2066.67 580 2058.67 577 2048 577H1916V806C1916 818.667 1913 828 1907 834C1901.67 839.333 1892.67 842 1880 842ZM2696.09 332L2649.09 484H2806.09L2759.09 332C2756.43 326 2753.43 321.667 2750.09 319C2747.43 316.333 2744.09 315 2740.09 315H2715.09C2711.09 315 2707.43 316.333 2704.09 319C2701.43 321.667 2698.76 326 2696.09 332ZM2639.09 806C2639.09 818.667 2636.09 828 2630.09 834C2624.76 839.333 2615.76 842 2603.09 842H2456.09C2443.43 842 2434.09 839.333 2428.09 834C2422.76 828 2420.09 818.667 2420.09 806V542C2420.09 522 2423.09 499 2429.09 473C2435.76 447 2445.76 416.667 2459.09 382L2546.09 155C2550.09 143.667 2556.09 135.333 2564.09 130C2572.76 124.667 2583.76 122 2597.09 122H2866.09C2878.76 122 2889.09 124.667 2897.09 130C2905.76 135.333 2912.09 143.667 2916.09 155L3003.09 382C3016.43 416.667 3026.09 447 3032.09 473C3038.76 499 3042.09 522 3042.09 542V806C3042.09 818.667 3039.09 828 3033.09 834C3027.76 839.333 3018.76 842 3006.09 842H2855.09C2841.76 842 2831.76 839.333 2825.09 834C2819.09 828 2816.09 818.667 2816.09 806V666H2639.09V806ZM3391.56 302V430H3466.56C3483.9 430 3495.56 425.667 3501.56 417C3507.56 407.667 3510.56 396.333 3510.56 383V349C3510.56 335.667 3507.56 324.667 3501.56 316C3495.56 306.667 3483.9 302 3466.56 302H3391.56ZM3355.56 842H3201.56C3188.9 842 3179.56 839.333 3173.56 834C3168.23 828 3165.56 818.667 3165.56 806V158C3165.56 145.333 3168.23 136.333 3173.56 131C3179.56 125 3188.9 122 3201.56 122H3534.56C3609.23 122 3660.56 137.667 3688.56 169C3717.23 199.667 3731.56 239.667 3731.56 289V335C3731.56 363 3727.23 387 3718.56 407C3710.56 426.333 3696.23 440.333 3675.56 449C3711.56 453 3740.56 467.667 3762.56 493C3785.23 518.333 3796.56 552 3796.56 594V806C3796.56 818.667 3793.56 828 3787.56 834C3782.23 839.333 3773.23 842 3760.56 842H3605.56C3592.9 842 3583.56 839.333 3577.56 834C3572.23 828 3569.56 818.667 3569.56 806V653C3569.56 638.333 3566.56 627.667 3560.56 621C3555.23 613.667 3545.56 610 3531.56 610H3391.56V806C3391.56 818.667 3388.56 828 3382.56 834C3377.23 839.333 3368.23 842 3355.56 842Z" fill="#2B2F3B"/>
<path d="M1221 548.667C1257.82 548.667 1287.67 518.819 1287.67 482C1287.67 445.181 1257.82 415.333 1221 415.333C1184.18 415.333 1154.33 445.181 1154.33 482C1154.33 518.819 1184.18 548.667 1221 548.667Z" stroke="#2B2F3B" stroke-width="50"/>
<path d="M1021 482H1154.33" stroke="#2B2F3B" stroke-width="50" stroke-linecap="round"/>
<path d="M1287.67 482H1421" stroke="#2B2F3B" stroke-width="50" stroke-linecap="round"/>
<path d="M1121 655.21L1187.67 539.74" stroke="#2B2F3B" stroke-width="50" stroke-linecap="round"/>
<path d="M1254.33 424.27L1321 308.799" stroke="#2B2F3B" stroke-width="50" stroke-linecap="round"/>
<path d="M1321 655.21L1254.33 539.74" stroke="#2B2F3B" stroke-width="50" stroke-linecap="round"/>
<path d="M1187.67 424.27L1121 308.799" stroke="#2B2F3B" stroke-width="50" stroke-linecap="round"/>
<path d="M1054.33 193.261C1103.36 164.899 1160.29 148.667 1221 148.667C1405.09 148.667 1554.33 297.905 1554.33 482C1554.33 666.093 1405.09 815.333 1221 815.333C1036.91 815.333 887.667 666.093 887.667 482C887.667 421.287 903.899 364.362 932.261 315.333" stroke="#2B2F3B" stroke-width="50" stroke-linecap="round"/>
<path d="M1321 655.243C1291.58 672.26 1257.43 682 1221 682C1110.54 682 1021 592.457 1021 482C1021 371.543 1110.54 282 1221 282C1331.46 282 1421 371.543 1421 482C1421 518.43 1411.26 552.583 1394.24 582" stroke="#2B2F3B" stroke-width="50" stroke-linecap="round"/>
</g>
<defs>
<clipPath id="clip0_17_6">
<rect width="3916" height="936" fill="white"/>
</clipPath>
</defs>
</svg>
